# AST/ASF file generated using VICON BodyLanguage
# -----------------------------------------------
:version 1.10
:name VICON
:units
  mass 1.0
  length 0.45
  angle deg
:documentation
   .ast/.asf automatically generated from VICON data using
   VICON BodyBuilder and BodyLanguage model FoxedUp or BRILLIANT.MOD
:root
   order TX TY TZ RX RY RZ
   axis XYZ
   position 0 0 0  
   orientation 0 0 0 
:bonedata
  begin
     id 1 
     name lhipjoint
     direction 0.567149 -0.783011 0.255413 
     length 2.28399 
     axis 0 0 0  XYZ
  end
  begin
     id 2 
     name lfemur
     direction 0.34202 -0.939693 0  
     length 7.34031  
     axis 0 0 20  XYZ
    dof rx ry rz
    limits (-160.0 20.0)
           (-70.0 70.0)
           (-60.0 70.0)
  end
  begin
     id 3 
     name ltibia
     direction 0.34202 -0.939693 0   
     length 6.9833   
     axis 0 0 20   XYZ
    dof rx
    limits (-10.0 170.0)
  end
  begin
     id 4 
     name lfoot
     direction 0.136498 -0.375025 0.91691   
     length 2.33665   
     axis -90 7.62852e-016 20   XYZ
    dof rx rz
    limits (-45.0 90.0)
           (-70.0 20.0)
  end
  begin
     id 5 
     name ltoes
     direction 1.5367e-011 -4.21617e-011 1   
     length 1.15039   
     axis -90 7.62852e-016 20   XYZ
    dof rx
    limits (-90.0 20.0)
  end
  begin
     id 6 
     name rhipjoint
     direction -0.602854 -0.758518 0.247423   
     length 2.35775  
     axis 0 0 0  XYZ 
  end
  begin
     id 7 
     name rfemur
     direction -0.34202 -0.939693 0   
     length 7.43932   
     axis 0 0 -20   XYZ
    dof rx ry rz
    limits (-160.0 20.0)
           (-70.0 70.0)
           (-70.0 60.0)
  end
  begin
     id 8 
     name rtibia
     direction -0.34202 -0.939693 0   
     length 7.11893   
     axis 0 0 -20   XYZ
    dof rx
    limits (-10.0 170.0)
 end
 begin
     id 9 
     name rfoot
     direction -0.131771 -0.362037 0.922803   
     length 2.53019  
     axis -90 -7.62852e-016 -20   XYZ
    dof rx rz
    limits (-45.0 90.0)
           (-20.0 70.0)
  end
  begin
     id 10 
     name rtoes
     direction -1.53733e-011 -4.21932e-011 1   
     length 1.24596   
     axis -90 -7.62852e-016 -20   XYZ
    dof rx
    limits (-90.0 20.0)
  end
  begin
     id 11 
     name lowerback
     direction 0.0235427 0.999023 -0.0374125   
     length 2.21768   
     axis 0 0 0   XYZ
    dof rx ry rz
    limits (-20.0 45.0)
           (-30.0 30.0)
           (-30.0 30.0)
  end
  begin
     id 12 
     name upperback
     direction 0.0302156 0.996818 -0.073759   
     length 2.20352   
     axis 0 0 0   XYZ
    dof rx ry rz
    limits (-20.0 45.0)
           (-30.0 30.0)
           (-30.0 30.0)
  end
  begin
     id 13 
     name thorax
     direction 0.0187169 0.998235 -0.0563532   
     length 2.22103   
     axis 0 0 0   XYZ
    dof rx ry rz
    limits (-20.0 45.0)
           (-30.0 30.0)
           (-30.0 30.0)
  end
  begin
     id 14 
     name lowerneck
     direction -0.119528 0.987423 0.103481   
     length 1.72948   
     axis 0 0 0   XYZ
    dof rx ry rz
    limits (-20.0 45.0)
           (-30.0 30.0)
           (-30.0 30.0)
  end
  begin
     id 15 
     name upperneck
     direction 0.248049 0.963095 -0.104496   
     length 1.74979   
     axis 0 0 0   XYZ
    dof rx ry rz
    limits (-20.0 45.0)
           (-30.0 30.0)
           (-30.0 30.0)
  end
  begin
     id 16
     name head
     direction 0.0903589 0.994284 -0.056876  
     length 1.78268  
     axis 0 0 0   XYZ
    dof rx ry rz
    limits (-20.0 45.0)
           (-30.0 30.0)
           (-30.0 30.0)
  end
  begin
     id 17 
     name lclavicle
     direction 0.946008 0.242039 -0.215608  
     length 3.80783  
     axis 0 0 0   XYZ
    dof ry rz
    limits (-20.0 10.0)
           (0.0 20.0)
  end
  begin
     id 18 
     name lhumerus
     direction 1 -4.48991e-011 -2.25695e-027   
     length 4.83125   
     axis 180 -30 -90   XYZ
    dof rx ry rz
    limits (-60.0 90.0)
           (-90.0 90.0)
           (-90.0 90.0)
  end
  begin
     id 19
     name lradius
     direction 0.999991 0.00366712 -0.00211721   
     length 3.00391   
     axis 180 -30 -90   XYZ
    dof rx
    limits (-10.0 170.0)
  end
  begin
     id 20
     name lwrist
     direction 0.999991 0.00393016 -0.00141978   
     length 1.50195   
     axis -1.00488e-014 90 90   XYZ
    dof ry
    limits (-180.0 0.0)
 end
  begin
     id 21 
     name lhand
     direction 1 -4.49123e-011 2.72098e-026   
     length 1.2717   
     axis -1.73687e-014 90 90   XYZ
    dof rx rz
    limits (-90.0 90.0)
           (-45.0 45.0)
  end
  begin
     id 22 
     name lfingers
     direction 1 -4.48678e-011 5.4479e-026   
     length 1.02528   
     axis -3.47372e-014 90 90   XYZ
    dof rx
    limits (0.0 90.0)
  end
  begin
     id 23
     name lthumb
     direction 0.707107 -6.34851e-011 0.707107   
     length 1.4721   
     axis -90 45 -1.62303e-014   XYZ
    dof rx rz
    limits (-45.0 45.0)
           (-45.0 45.0)
  end
  begin
     id 24 
     name rclavicle
     direction -0.981723 0.189447 -0.0181673   
     length 3.74989  
     axis 0 0 0   XYZ 
    dof ry rz
    limits (-10.0 20.0)
           (-20.0 0.0)
  end
  begin
     id 25 
     name rhumerus
     direction -1 -4.48985e-011 2.38206e-027  
     length 4.61118   
     axis 180 30 90   XYZ
    dof rx ry rz
    limits (-90.0 60.0)
           (-90.0 90.0)
           (-90.0 90.0)
  end
  begin
     id 26 
     name rradius
     direction -1 -4.48977e-011 7.41019e-027   
     length 2.91491   
     axis 180 30 90   XYZ
    dof rx
    limits (-10.0 170.0)
  end
  begin
     id 27 
     name rwrist
     direction -1 -4.48549e-011 1.3624e-026   
     length 1.45745   
     axis -1.00488e-014 -90 -90   XYZ
    dof ry
    limits (-180.0 0.0)
  end
  begin
     id 28
     name rhand
     direction -1 -4.49107e-011 2.72109e-026   
     length 1.30769   
     axis -1.73687e-014 -90 -90   XYZ
    dof rx rz
    limits (-90.0 90.0)
           (-45.0 45.0)
  end
  begin
     id 29
     name rfingers
     direction -1 -4.48919e-011 5.44468e-026   
     length 1.05429   
     axis -3.47372e-014 -90 -90   XYZ
    dof rx
    limits (0.0 90.0)
  end
  begin
     id 30
     name rthumb
     direction -0.707107 -6.35315e-011 0.707107   
     length 1.51376   
     axis -90 -45 1.62303e-014   XYZ
    dof rx rz
    limits (-45.0 45.0)
           (-45.0 45.0)
  end
:hierarchy
  begin
    root lhipjoint rhipjoint lowerback
    lhipjoint lfemur
    lfemur ltibia
    ltibia lfoot
    lfoot ltoes
    rhipjoint rfemur
    rfemur rtibia
    rtibia rfoot
    rfoot rtoes
    lowerback upperback
    upperback thorax
    thorax lowerneck lclavicle rclavicle
    lowerneck upperneck
    upperneck head
    lclavicle lhumerus
    lhumerus lradius
    lradius lwrist
    lwrist lhand lthumb
    lhand lfingers
    rclavicle rhumerus
    rhumerus rradius
    rradius rwrist
    rwrist rhand rthumb
    rhand rfingers
  end

#!OML:ASF X:\für Bonn\!DataBase\2005_08_11_Bastian_Final\c3d\Bastian.ASF
:FULLY-SPECIFIED
:DEGREES
1
root -22.7512 17.6202 -0.41245 90.7548 -83.9019 -98.7859
lowerback 4.97809 -1.9179 3.09847
upperback 5.0714 -2.69972 2.73692
thorax 2.43693 -1.38748 1.15588
lowerneck -8.37445 -2.87491 -2.92958
upperneck -9.9073 -3.7381 4.94625
head -1.55543 -1.99108 2.02256
rclavicle 3.06253e-014 -4.75095e-014
rhumerus -48.8047 -5.86383 -88.8186
rradius 32.0275
rwrist -29.7629
rhand -7.39086 0.942586
rfingers 7.12502
rthumb 18.4949 -28.1982
lclavicle 3.06253e-014 -4.75095e-014
lhumerus -27.8293 -1.2977 90.6303
lradius 10.4959
lwrist 4.56334
lhand -8.91068 -6.29536
lfingers 7.12502
lthumb 17.0324 22.9779
rfemur 0.39531 4.4776 26.5104
rtibia 27.6244
rfoot -10.8816 -14.9746
rtoes -8.8826
lfemur 3.41774 3.61982 -12.7845
ltibia 22.3259
lfoot -11.0933 -2.79638
ltoes -16.225
2
root -22.747 17.6203 -0.411867 90.456 -83.9282 -98.5127
lowerback 5.02928 -1.91554 3.07654
upperback 5.0945 -2.69609 2.71995
thorax 2.43247 -1.38639 1.15203
lowerneck -8.44485 -2.89857 -3.00485
upperneck -9.87855 -3.76366 4.95645
head -1.53198 -2.00065 2.03666
rclavicle 1.68097e-014 5.76476e-015
rhumerus -48.8177 -5.37552 -89.0751
rradius 32.7561
rwrist -30.0387
rhand -7.4591 0.391369
rfingers 7.12502
rthumb 18.4292 -28.7556
lclavicle 1.68097e-014 5.76476e-015
lhumerus -27.4152 -1.1019 90.4008
lradius 10.3407
lwrist 3.81907
lhand -8.99883 -6.41151
lfingers 7.12502
lthumb 16.9476 22.8691
rfemur 0.41473 4.48889 26.4886
rtibia 27.6256
rfoot -10.893 -15.0108
rtoes -8.83552
lfemur 3.42068 3.63417 -12.8068
ltibia 22.3266
lfoot -11.0657 -2.853
ltoes -16.1751
3
root -22.7426 17.6211 -0.411821 90.0171 -83.9337 -98.0918
lowerback 5.08743 -1.91129 3.06537
upperback 5.10148 -2.68833 2.71272
thorax 2.40743 -1.38316 1.15269
lowerneck -8.46325 -2.91839 -3.08907
upperneck -9.88247 -3.78339 4.96993
head -1.52779 -2.00777 2.05528
rclavicle -4.65902e-015 -3.08116e-014
rhumerus -48.8782 -4.97051 -89.244
rradius 33.4684
rwrist -30.0305
rhand -7.50239 -0.269177
rfingers 7.12502
rthumb 18.3876 -29.4201
lclavicle -4.65902e-015 -3.08116e-014
lhumerus -27.027 -1.04547 90.2339
lradius 10.255
lwrist 3.36367
lhand -9.06306 -6.45746
lfingers 7.12502
lthumb 16.8857 22.8284
rfemur 0.420583 4.48015 26.4846
rtibia 27.6246
rfoot -10.9004 -15.0282
rtoes -8.70046
lfemur 3.40658 3.70284 -12.7871
ltibia 22.3312
lfoot -11.0256 -2.9642
ltoes -16.1746
4
root -22.7385 17.6214 -0.41177 89.4777 -83.9347 -97.5577
lowerback 5.13 -1.90989 3.06557
upperback 5.0984 -2.68374 2.70303
thorax 2.38 -1.38089 1.14418
lowerneck -8.45397 -2.94242 -3.13609
upperneck -9.89402 -3.8135 4.94064
head -1.53161 -2.02092 2.05382
rclavicle 9.82742e-015 -3.39922e-014
rhumerus -48.9907 -4.65939 -89.3277
rradius 34.2033
rwrist -29.7207
rhand -7.51348 -0.982356
rfingers 7.12502
rthumb 18.3769 -30.1343
lclavicle 9.82742e-015 -3.39922e-014
lhumerus -26.6786 -1.06201 90.1029
lradius 10.2274
lwrist 3.07012
lhand -9.13975 -6.51021
lfingers 7.12502
lthumb 16.8119 22.782
rfemur 0.423032 4.49339 26.4973
rtibia 27.621
rfoot -10.8959 -15.0923
rtoes -8.6662
lfemur 3.38359 3.69238 -12.7764
ltibia 22.3396
lfoot -10.9989 -3.02563
ltoes -15.9982
5
root -22.7349 17.6218 -0.411906 88.7001 -83.9426 -96.7841
lowerback 5.16283 -1.92081 3.03533
upperback 5.10298 -2.69807 2.70566
thorax 2.36785 -1.38931 1.16536
lowerneck -8.50603 -2.94987 -3.19092
upperneck -9.8575 -3.82085 4.8993
head -1.51069 -2.02118 2.04795
rclavicle 3.37561e-014 -4.09496e-014
rhumerus -49.0692 -4.36527 -89.3544
rradius 34.8763
rwrist -29.1196
rhand -7.51954 -1.68263
rfingers 7.12502
rthumb 18.3711 -30.8351
lclavicle 3.37561e-014 -4.09496e-014
lhumerus -26.3287 -0.998847 89.9609
lradius 10.2301
lwrist 2.84465
lhand -9.20463 -6.61921
lfingers 7.12502
lthumb 16.7495 22.6783
rfemur 0.424918 4.45594 26.4949
rtibia 27.6122
rfoot -10.8881 -15.1325
rtoes -8.65096
lfemur 3.34625 3.75874 -12.7533
ltibia 22.3561
lfoot -10.9591 -3.17091
ltoes -15.9835
6
root -22.7317 17.6218 -0.411965 87.908 -83.9521 -96.0054
lowerback 5.19989 -1.919 3.00884
upperback 5.10958 -2.69513 2.70528
thorax 2.35514 -1.38889 1.18093
lowerneck -8.52191 -2.96702 -3.25324
upperneck -9.85958 -3.84074 4.86429
head -1.50755 -2.02839 2.0468
rclavicle -3.91357e-015 -2.36554e-014
rhumerus -49.1799 -4.09062 -89.3512
rradius 35.6577
rwrist -28.3844
rhand -7.55107 -2.60569
rfingers 7.12502
rthumb 18.3408 -31.761
lclavicle -3.91357e-015 -2.36554e-014
lhumerus -26.0077 -1.27656 89.9552
lradius 10.299
lwrist 3.06809
lhand -9.32807 -6.68954
lfingers 7.12502
lthumb 16.6306 22.618
rfemur 0.448632 4.45027 26.4985
rtibia 27.5993
rfoot -10.889 -15.2037
rtoes -8.61377
lfemur 3.32184 3.77839 -12.7449
ltibia 22.3766
lfoot -10.9334 -3.27103
ltoes -15.972
7
root -22.7286 17.6219 -0.4123 87.0269 -83.943 -95.1359
lowerback 5.22694 -1.91793 3.00631
upperback 5.12314 -2.6931 2.69433
thorax 2.35374 -1.38788 1.17178
lowerneck -8.55385 -2.98423 -3.27628
upperneck -9.8503 -3.86337 4.82891
head -1.49858 -2.03808 2.03795
rclavicle 2.73577e-014 1.0138e-014
rhumerus -49.305 -3.91405 -89.3005
rradius 36.448
rwrist -27.3882
rhand -7.55215 -3.43327
rfingers 7.12502
rthumb 18.3397 -32.5887
lclavicle 2.73577e-014 1.0138e-014
lhumerus -25.6832 -1.45261 89.8764
lradius 10.4123
lwrist 3.20563
lhand -9.39069 -6.78333
lfingers 7.12502
lthumb 16.5703 22.5292
rfemur 0.462908 4.40378 26.5128
rtibia 27.5871
rfoot -10.8829 -15.2471
rtoes -8.59949
lfemur 3.29488 3.85051 -12.7009
ltibia 22.3976
lfoot -10.8988 -3.43649
ltoes -15.9444
8
root -22.7252 17.622 -0.412507 86.0896 -83.9492 -94.2027
lowerback 5.25629 -1.91889 2.98578
upperback 5.12724 -2.69323 2.68092
thorax 2.34179 -1.38833 1.17048
lowerneck -8.55128 -3.00035 -3.31015
upperneck -9.87254 -3.88385 4.80347
head -1.5053 -2.04717 2.0357
rclavicle -2.43387e-014 3.61788e-014
rhumerus -49.4343 -3.75515 -89.1879
rradius 37.2164
rwrist -26.1882
rhand -7.46909 -4.173
rfingers 7.12502
rthumb 18.4196 -33.3209
lclavicle -2.43387e-014 3.61788e-014
lhumerus -25.409 -1.67548 89.8278
lradius 10.6196
lwrist 3.48316
lhand -9.44548 -6.84404
lfingers 7.12502
lthumb 16.5176 22.4729
rfemur 0.476056 4.39424 26.5189
rtibia 27.5778
rfoot -10.8869 -15.3294
rtoes -8.55757
lfemur 3.25913 3.84266 -12.6917
ltibia 22.4148
lfoot -10.8655 -3.54075
ltoes -15.6982
9
root -22.7237 17.6221 -0.412594 85.0357 -83.9641 -93.1511
lowerback 5.26848 -1.92095 2.95029
upperback 5.12821 -2.69586 2.67154
thorax 2.33696 -1.39039 1.18112
lowerneck -8.55803 -3.01728 -3.33719
upperneck -9.8695 -3.90694 4.74599
head -1.50288 -2.05675 2.02095
rclavicle 1.963e-015 1.19271e-015
rhumerus -49.596 -3.63845 -88.9829
rradius 37.9899
rwrist -24.7659
rhand -7.25918 -4.7312
rfingers 7.12502
rthumb 18.6215 -33.8599
lclavicle 1.963e-015 1.19271e-015
lhumerus -25.1725 -1.90637 89.7885
lradius 10.9255
lwrist 3.82604
lhand -9.43377 -6.84484
lfingers 7.12502
lthumb 16.5289 22.4712
rfemur 0.489968 4.32128 26.4966
rtibia 27.5749
rfoot -10.9023 -15.3623
rtoes -8.52466
lfemur 3.22961 3.90694 -12.6816
ltibia 22.4227
lfoot -10.8252 -3.71033
ltoes -15.6764
10
root -22.7222 17.6218 -0.412451 83.6964 -83.9906 -91.8289
lowerback 5.28769 -1.92711 2.90553
upperback 5.13868 -2.7042 2.64957
thorax 2.33785 -1.39532 1.18424
lowerneck -8.56645 -3.04227 -3.36921
upperneck -9.87503 -3.93939 4.71253
head -1.50204 -2.07135 2.01492
rclavicle 1.963e-015 -3.18055e-015
rhumerus -49.7361 -3.58589 -88.7171
rradius 38.7502
rwrist -23.1491
rhand -6.95768 -5.10241
rfingers 7.12502
rthumb 18.9115 -34.2031
lclavicle 1.963e-015 -3.18055e-015
lhumerus -24.9575 -2.23695 89.7774
lradius 11.2719
lwrist 4.29724
lhand -9.46615 -6.88405
lfingers 7.12502
lthumb 16.4977 22.4345
rfemur 0.517209 4.26595 26.4677
rtibia 27.5818
rfoot -10.9251 -15.4385
rtoes -8.57005
lfemur 3.22137 3.97692 -12.6812
ltibia 22.4195
lfoot -10.7897 -3.91581
ltoes -15.6957
11
root -22.7216 17.6211 -0.41287 82.3154 -84.0195 -90.4516
lowerback 5.27975 -1.93282 2.83357
upperback 5.15093 -2.71456 2.64092
thorax 2.35753 -1.40222 1.21517
lowerneck -8.58601 -3.06464 -3.40034
upperneck -9.8698 -3.96896 4.66293
head -1.49632 -2.08411 2.00304
rclavicle -4.34841e-015 8.34896e-015
rhumerus -49.8936 -3.49637 -88.3921
rradius 39.5833
rwrist -21.5048
rhand -6.55272 -5.44123
rfingers 7.12502
rthumb 19.301 -34.5034
lclavicle -4.34841e-015 8.34896e-015
lhumerus -24.7285 -2.3472 89.7174
lradius 11.6406
lwrist 4.6326
lhand -9.45399 -6.93122
lfingers 7.12502
lthumb 16.5094 22.3864
rfemur 0.536604 4.2047 26.4316
rtibia 27.592
rfoot -10.9602 -15.5104
rtoes -8.53039
lfemur 3.20211 3.98185 -12.6996
ltibia 22.4117
lfoot -10.7412 -4.07265
ltoes -15.4837
12
root -22.7212 17.6212 -0.413004 80.9293 -84.0661 -89.0638
lowerback 5.25856 -1.94054 2.74194
upperback 5.16632 -2.72849 2.62199
thorax 2.38817 -1.4111 1.246
lowerneck -8.62046 -3.09461 -3.45046
upperneck -9.8403 -4.00529 4.6426
head -1.47909 -2.09949 2.00312
rclavicle -1.70085e-014 3.08116e-014
rhumerus -50.0382 -3.38954 -88.0357
rradius 40.4378
rwrist -19.8487
rhand -6.1058 -5.68974
rfingers 7.12502
rthumb 19.7307 -34.7084
lclavicle -1.70085e-014 3.08116e-014
lhumerus -24.563 -2.75102 89.7476
lradius 12.1459
lwrist 5.31192
lhand -9.49253 -6.97765
lfingers 7.12502
lthumb 16.4723 22.3431
rfemur 0.542514 4.10317 26.3594
rtibia 27.6031
rfoot -10.9881 -15.5384
rtoes -8.51465
lfemur 3.17971 4.05063 -12.732
ltibia 22.4035
lfoot -10.6931 -4.27142
ltoes -15.4436
